<svg width="60" height="40" viewBox="0 0 60 40" fill="none" xmlns="http://www.w3.org/2000/svg">
<path d="M50.4 17.375C50.7844 16.4196 51 15.375 51 14.2857C51 9.55357 46.9688 5.71429 42 5.71429C40.1531 5.71429 38.4281 6.25 37.0031 7.16071C34.4062 2.875 29.5594 0 24 0C15.7125 0 9 6.39286 9 14.2857C9 14.5268 9.00937 14.7679 9.01875 15.0089C3.76875 16.7679 0 21.5357 0 27.1429C0 34.2411 6.04688 40 13.5 40H48C54.6281 40 60 34.8839 60 28.5714C60 23.0446 55.875 18.4286 50.4 17.375Z" fill="#CDC1C1"/>
</svg>
