<svg width="166" height="220" viewBox="0 0 166 220" fill="none" xmlns="http://www.w3.org/2000/svg">
<circle cx="5" cy="6.40759" r="5" fill="white" fill-opacity="0.4"/>
<circle cx="56.75" cy="6.40759" r="5" fill="white" fill-opacity="0.4"/>
<circle cx="108.5" cy="5" r="5" fill="white" fill-opacity="0.4"/>
<circle cx="160.25" cy="5" r="5" fill="white" fill-opacity="0.4"/>
<circle cx="5" cy="47.9326" r="5" fill="white" fill-opacity="0.4"/>
<circle cx="56.75" cy="47.9326" r="5" fill="white" fill-opacity="0.4"/>
<circle cx="108.5" cy="46.5249" r="5" fill="white" fill-opacity="0.4"/>
<circle cx="160.25" cy="46.5249" r="5" fill="white" fill-opacity="0.4"/>
<circle cx="5" cy="89.4575" r="5" fill="white" fill-opacity="0.4"/>
<circle cx="56.75" cy="89.4575" r="5" fill="white" fill-opacity="0.4"/>
<circle cx="108.5" cy="88.0499" r="5" fill="white" fill-opacity="0.4"/>
<circle cx="160.25" cy="88.0499" r="5" fill="white" fill-opacity="0.4"/>
<circle cx="5" cy="130.982" r="5" fill="white" fill-opacity="0.4"/>
<circle cx="56.75" cy="130.982" r="5" fill="white" fill-opacity="0.4"/>
<circle cx="108.5" cy="129.575" r="5" fill="white" fill-opacity="0.4"/>
<circle cx="160.25" cy="129.575" r="5" fill="white" fill-opacity="0.4"/>
<circle cx="5" cy="172.507" r="5" fill="white" fill-opacity="0.4"/>
<circle cx="56.75" cy="172.507" r="5" fill="white" fill-opacity="0.4"/>
<circle cx="108.5" cy="171.1" r="5" fill="white" fill-opacity="0.4"/>
<circle cx="160.25" cy="171.1" r="5" fill="white" fill-opacity="0.4"/>
<circle cx="5" cy="214.032" r="5" fill="white" fill-opacity="0.4"/>
<circle cx="56.75" cy="214.032" r="5" fill="white" fill-opacity="0.4"/>
<circle cx="108.5" cy="212.625" r="5" fill="white" fill-opacity="0.4"/>
<circle cx="160.25" cy="212.625" r="5" fill="white" fill-opacity="0.4"/>
</svg>
