<svg width="50" height="50" viewBox="0 0 50 50" fill="none" xmlns="http://www.w3.org/2000/svg">
<path d="M49.99 17.0898C49.1013 9.70703 42.3338 4.16016 34.5312 1.5918C38.0858 5.43945 40.6248 11.416 40.6248 18.75H43.3689L31.9823 31.3965C31.7382 31.3379 31.5136 31.25 31.2499 31.25H26.5625V18.75H37.4999C37.4999 7.5 30.7714 0 25 0C19.2286 0 12.5001 7.5 12.5001 18.75H23.4375V31.25H18.7501C18.4864 31.25 18.2618 31.3379 18.0177 31.3965L6.63105 18.75H9.37516C9.37516 11.416 11.9142 5.43945 15.4689 1.5918C7.6662 4.16992 0.898688 9.7168 0.0100256 17.0898C-0.0973951 17.9785 0.674081 18.75 1.57251 18.75H2.42211L15.7716 33.584C15.7032 33.8379 15.6153 34.0918 15.6153 34.375V46.875C15.6153 48.6035 17.0118 50 18.7403 50H31.2402C32.9687 50 34.3651 48.6035 34.3651 46.875V34.375C34.3651 34.0918 34.2772 33.8477 34.2089 33.584L47.5681 18.75H48.4177C49.3259 18.75 50.0974 17.9883 49.99 17.0898Z" fill="#B8B8B8"/>
</svg>
