<svg width="71" height="71" viewBox="0 0 71 71" fill="none" xmlns="http://www.w3.org/2000/svg">
<g clip-path="url(#clip0_16_164)">
<path fill-rule="evenodd" clip-rule="evenodd" d="M31.8343 39.1872C31.5276 38.9146 31.1701 38.7051 30.7824 38.5706C30.3947 38.4361 29.9842 38.3794 29.5746 38.4035C29.1649 38.4276 28.764 38.5322 28.3948 38.7113C28.0255 38.8904 27.6952 39.1404 27.4225 39.4472L25.0867 37.3713C25.6319 36.7578 26.2926 36.2577 27.0311 35.8995C27.7696 35.5414 28.5714 35.3322 29.3908 35.2839C30.2101 35.2356 31.0309 35.3492 31.8064 35.6181C32.5818 35.8871 33.2967 36.3061 33.9102 36.8513C34.5237 37.3966 35.0238 38.0573 35.382 38.7958C35.7401 39.5343 35.9493 40.3361 35.9976 41.1554C36.0459 41.9748 35.9323 42.7956 35.6634 43.571C35.3944 44.3465 34.9754 45.0614 34.4301 45.6749L32.0943 43.599C32.3669 43.2922 32.5764 42.9348 32.7109 42.5471C32.8454 42.1593 32.9021 41.7489 32.878 41.3393C32.8539 40.9296 32.7493 40.5287 32.5702 40.1594C32.3911 39.7902 32.1411 39.4598 31.8343 39.1872Z" fill="#B99FE4"/>
<path fill-rule="evenodd" clip-rule="evenodd" d="M33.9105 36.851C33.2969 36.3058 32.582 35.8867 31.8065 35.6178C31.031 35.3488 30.2101 35.2352 29.3907 35.2835C28.5713 35.3318 27.7695 35.541 27.0309 35.8992C26.2924 36.2573 25.6316 36.7575 25.0864 37.371L22.7505 35.2951C23.5684 34.3748 24.5595 33.6247 25.6673 33.0874C26.7751 32.5501 27.9778 32.2363 29.2069 32.1639C30.436 32.0915 31.6673 32.2619 32.8305 32.6653C33.9937 33.0687 35.0661 33.6973 35.9864 34.5152C36.9066 35.333 37.6568 36.3242 38.1941 37.432C38.7313 38.5397 39.0451 39.7425 39.1176 40.9716C39.19 42.2006 39.0196 43.4319 38.6162 44.5951C38.2128 45.7584 37.5842 46.8307 36.7663 47.751L34.4304 45.6751C34.9757 45.0616 35.3948 44.3467 35.6637 43.5712C35.9327 42.7957 36.0463 41.9748 35.998 41.1554C35.9497 40.336 35.7405 39.5342 35.3823 38.7956C35.0241 38.0571 34.524 37.3963 33.9105 36.851Z" fill="#00B0FF"/>
<path fill-rule="evenodd" clip-rule="evenodd" d="M35.9845 34.5173C35.0644 33.6997 33.9924 33.0713 32.8295 32.668C31.6667 32.2647 30.4358 32.0944 29.2071 32.1668C27.9784 32.2392 26.776 32.5529 25.6685 33.09C24.5611 33.6271 23.5703 34.377 22.7526 35.297L20.4168 33.2211C21.507 31.9944 22.8282 30.9944 24.3049 30.2782C25.7816 29.562 27.3849 29.1437 29.0232 29.0472C30.6616 28.9507 32.3029 29.1778 33.8535 29.7155C35.4041 30.2533 36.8336 31.0912 38.0604 32.1815C39.2871 33.2717 40.2871 34.5929 41.0033 36.0696C41.7195 37.5463 42.1378 39.1496 42.2343 40.7879C42.3308 42.4263 42.1037 44.0676 41.566 45.6182C41.0282 47.1688 40.1903 48.5983 39.1 49.825L36.7642 47.7491C37.5818 46.8291 38.2102 45.7571 38.6135 44.5942C39.0168 43.4314 39.1871 42.2004 39.1147 40.9718C39.0423 39.7431 38.7286 38.5407 38.1915 37.4332C37.6544 36.3258 36.9045 35.3349 35.9845 34.5173Z" fill="#7AC74D"/>
<path fill-rule="evenodd" clip-rule="evenodd" d="M38.0586 32.1835C36.8321 31.0935 35.4029 30.2557 33.8526 29.7181C32.3024 29.1804 30.6614 28.9534 29.0234 29.0499C27.3854 29.1464 25.7824 29.5646 24.3061 30.2806C22.8297 30.9967 21.5088 31.9965 20.4188 33.2229L18.0829 31.1471C19.4455 29.6138 21.0968 28.364 22.9424 27.4689C24.788 26.5738 26.7919 26.051 28.8396 25.9303C30.8873 25.8096 32.9386 26.0935 34.8766 26.7656C36.8146 27.4377 38.6012 28.485 40.1345 29.8476C41.6677 31.2102 42.9176 32.8615 43.8127 34.7071C44.7078 36.5527 45.2306 38.5566 45.3512 40.6043C45.4719 42.6519 45.188 44.7033 44.5159 46.6413C43.8438 48.5793 42.7965 50.3659 41.4339 51.8992L39.098 49.8233C40.188 48.5968 41.0258 47.1676 41.5634 45.6173C42.1011 44.0671 42.3282 42.4261 42.2316 40.7881C42.1351 39.1501 41.7169 37.5471 41.0009 36.0708C40.2849 34.5944 39.2851 33.2735 38.0586 32.1835Z" fill="#FABA2C"/>
<path fill-rule="evenodd" clip-rule="evenodd" d="M40.1354 29.8465C38.602 28.4838 36.8153 27.4364 34.8771 26.7643C32.9389 26.0921 30.8874 25.8082 28.8395 25.9289C26.7916 26.0495 24.7876 26.5724 22.9418 27.4676C21.096 28.3627 19.4446 29.6127 18.0819 31.1461L15.746 29.0702C17.3813 27.2301 19.3631 25.73 21.5781 24.6558C23.7932 23.5815 26.1981 22.9541 28.6557 22.8093C31.1132 22.6645 33.5752 23.0051 35.9011 23.8118C38.227 24.6184 40.3712 25.8753 42.2113 27.5107C44.0515 29.146 45.5515 31.1278 46.6257 33.3428C47.7 35.5579 48.3274 37.9628 48.4722 40.4203C48.617 42.8779 48.2764 45.3399 47.4697 47.6657C46.6631 49.9916 45.4062 52.1358 43.7708 53.976L41.435 51.9001C42.7977 50.3667 43.8451 48.5799 44.5173 46.6418C45.1895 44.7036 45.4733 42.652 45.3526 40.6042C45.232 38.5563 44.7091 36.5523 43.8139 34.7065C42.9188 32.8607 41.6688 31.2093 40.1354 29.8465Z" fill="#FF8353"/>
<path fill-rule="evenodd" clip-rule="evenodd" d="M42.21 27.5122C40.3701 25.877 38.2261 24.6203 35.9004 23.8137C33.5748 23.0071 31.1131 22.6665 28.6558 22.8113C26.1985 22.9561 23.7938 23.5835 21.579 24.6576C19.3642 25.7317 17.3827 27.2316 15.7475 29.0715L13.4116 26.9956C15.3194 24.8489 17.6313 23.099 20.2154 21.8458C22.7994 20.5926 25.605 19.8606 28.472 19.6917C31.3389 19.5228 34.2111 19.9202 36.9244 20.8612C39.6378 21.8023 42.1392 23.2685 44.2859 25.1763C46.4326 27.0841 48.1825 29.396 49.4357 31.98C50.6889 34.5641 51.4209 37.3697 51.5898 40.2366C51.7588 43.1036 51.3614 45.9757 50.4203 48.6891C49.4793 51.4024 48.013 53.9039 46.1052 56.0506L43.7694 53.9747C45.4045 52.1347 46.6613 49.9907 47.4678 47.6651C48.2744 45.3395 48.615 42.8777 48.4702 40.4205C48.3254 37.9632 47.6981 35.5585 46.6239 33.3437C45.5498 31.1289 44.0499 29.1473 42.21 27.5122Z" fill="#FF575B"/>
</g>
<defs>
<clipPath id="clip0_16_164">
<rect width="50" height="50" fill="white" transform="translate(33.2144) rotate(41.6276)"/>
</clipPath>
</defs>
</svg>
